<svg xmlns="http://www.w3.org/2000/svg" viewBox="0 0 640 480" role="img">
  <rect width="640" height="480" rx="28" fill="#f2fbff"/>
  <rect x="70" y="84" width="170" height="140" rx="18" fill="#ffffff" stroke="#b7e7ff" stroke-width="6"/>
  <path d="M155 86v136M72 154h166" stroke="#dff3ff" stroke-width="6"/>
  <rect x="118" y="256" width="420" height="112" rx="24" fill="#ffffff"/>
  <rect x="118" y="214" width="120" height="68" rx="18" fill="#35a7ff"/>
  <rect x="252" y="214" width="120" height="68" rx="18" fill="#dff3ff"/>
  <path d="M118 302h420" stroke="#0e4c92" stroke-width="22"/>
  <path d="M146 368v44M500 368v44" stroke="#0b2f5f" stroke-width="14" stroke-linecap="round"/>
  <rect x="430" y="170" width="74" height="70" rx="12" fill="#ffffff" stroke="#b7e7ff" stroke-width="5"/>
  <path d="M444 206h46" stroke="#35a7ff" stroke-width="9" stroke-linecap="round"/>
  <path d="M404 104c18-4 29-15 34-34 5 19 16 30 34 34-18 4-29 15-34 34-5-19-16-30-34-34Z" fill="#35a7ff"/>
</svg>
