<svg xmlns="http://www.w3.org/2000/svg" viewBox="0 0 900 680" role="img">
  <defs>
    <linearGradient id="wall" x1="0" y1="0" x2="1" y2="1">
      <stop stop-color="#f7fcff"/>
      <stop offset="1" stop-color="#dff3ff"/>
    </linearGradient>
    <linearGradient id="blue" x1="0" y1="0" x2="1" y2="1">
      <stop stop-color="#1167c4"/>
      <stop offset="1" stop-color="#35a7ff"/>
    </linearGradient>
    <filter id="shadow" x="-20%" y="-20%" width="140%" height="140%">
      <feDropShadow dx="0" dy="20" stdDeviation="18" flood-color="#08213f" flood-opacity=".16"/>
    </filter>
  </defs>
  <rect width="900" height="680" rx="42" fill="url(#wall)"/>
  <path d="M80 535h740v82H80z" fill="#cdefff"/>
  <path d="M86 535h728" stroke="#9ad9ff" stroke-width="4"/>
  <rect x="90" y="90" width="220" height="250" rx="22" fill="#fff" stroke="#b7e7ff" stroke-width="6"/>
  <path d="M200 93v243M94 215h212" stroke="#d7f2ff" stroke-width="6"/>
  <path d="M375 157c0-24 19-43 43-43h204c24 0 43 19 43 43v147H375z" fill="#fff" filter="url(#shadow)"/>
  <path d="M375 304h290v90H375z" fill="#eaf8ff"/>
  <path d="M365 394h312v40H365z" fill="url(#blue)"/>
  <path d="M414 434h54v82h-54zM574 434h54v82h-54z" fill="#0b2f5f"/>
  <circle cx="708" cy="253" r="48" fill="#fff" filter="url(#shadow)"/>
  <path d="M687 254c16-3 26-13 31-30 5 17 15 27 31 30-16 3-26 13-31 30-5-17-15-27-31-30Z" fill="#35a7ff"/>
  <rect x="144" y="406" width="175" height="125" rx="18" fill="#fff" filter="url(#shadow)"/>
  <path d="M161 448h142M161 480h116" stroke="#b7e7ff" stroke-width="14" stroke-linecap="round"/>
  <path d="M120 550c70-39 142-39 216 0M540 550c74-47 148-47 224 0" stroke="#fff" stroke-width="22" stroke-linecap="round"/>
</svg>
