<svg xmlns="http://www.w3.org/2000/svg" viewBox="0 0 640 480" role="img">
  <rect width="640" height="480" rx="28" fill="#f2fbff"/>
  <path d="M168 214h304l-36 170H204z" fill="#ffffff" stroke="#b7e7ff" stroke-width="7" stroke-linejoin="round"/>
  <path d="M250 214c0-42 32-76 70-76s70 34 70 76" fill="none" stroke="#1167c4" stroke-width="16" stroke-linecap="round"/>
  <rect x="116" y="150" width="82" height="206" rx="20" fill="#35a7ff"/>
  <path d="M134 150h46l-8-48h-30z" fill="#0e4c92"/>
  <rect x="448" y="122" width="70" height="234" rx="18" fill="#0e4c92"/>
  <path d="M462 122h42l-6-46h-30z" fill="#35a7ff"/>
  <path d="M252 286h136M238 326h164" stroke="#dff3ff" stroke-width="16" stroke-linecap="round"/>
  <path d="M506 236c18-4 30-16 35-35 5 19 17 31 35 35-18 4-30 16-35 35-5-19-17-31-35-35Z" fill="#35a7ff"/>
</svg>
