<svg xmlns="http://www.w3.org/2000/svg" viewBox="0 0 640 480" role="img">
  <rect width="640" height="480" rx="28" fill="#f2fbff"/>
  <rect x="70" y="80" width="500" height="96" rx="14" fill="#ffffff" stroke="#b7e7ff" stroke-width="5"/>
  <rect x="90" y="106" width="80" height="48" rx="8" fill="#dff3ff"/>
  <rect x="190" y="106" width="80" height="48" rx="8" fill="#dff3ff"/>
  <rect x="290" y="106" width="80" height="48" rx="8" fill="#dff3ff"/>
  <rect x="390" y="106" width="80" height="48" rx="8" fill="#dff3ff"/>
  <rect x="70" y="302" width="500" height="78" rx="12" fill="#0e4c92"/>
  <rect x="88" y="220" width="464" height="92" rx="18" fill="#ffffff"/>
  <path d="M242 263h156" stroke="#35a7ff" stroke-width="16" stroke-linecap="round"/>
  <path d="M282 247c0-22 18-40 40-40" stroke="#1167c4" stroke-width="9" stroke-linecap="round" fill="none"/>
  <circle cx="455" cy="266" r="18" fill="#dff3ff"/>
  <path d="M92 407h456" stroke="#b7e7ff" stroke-width="12" stroke-linecap="round"/>
  <path d="M454 210c20-4 32-16 38-38 6 22 18 34 38 38-20 4-32 16-38 38-6-22-18-34-38-38Z" fill="#35a7ff"/>
</svg>
